#!OML:ASF H:\Terrain\Patient Classification 1\Animal1\Tuesday\Animal1.ASF
:FULLY-SPECIFIED
:DEGREES
2449
root 13.7603 16.4838 -12.0609 -341.585 -1.10969 -0.832584
lowerback 7.20235 -2.21166 -1.77638
upperback -0.858293 -3.05924 0.95495
thorax -4.78414 -1.45338 2.32806
lowerneck -1.86357 9.34795 -2.78643
upperneck 0.115179 12.5306 4.89927
head -0.164313 6.28671 1.98245
rclavicle -2.3059e-014 -7.95139e-016
rhumerus -39.8895 -13.1784 -42.0436
rradius 123.512
rwrist 14.5599
rhand 13.979 7.89431
rfingers 7.12502
rthumb 38.8898 -17.6572
lclavicle -2.3059e-014 -7.95139e-016
lhumerus 24.9566 -2.76047 57.5292
lradius 99.9762
lwrist -64.4637
lhand 16.5722 52.4183
lfingers 7.12502
lthumb 41.3294 77.229
rfemur -35.0515 12.7246 16.0948
rtibia 28.747
rfoot -2.26907 -24.6973
rtoes -9.43985
lfemur -30.302 -19.9214 -2.23218
ltibia 19.6008
lfoot -10.742 19.1355
ltoes -17.835
2450
root 13.7648 16.4825 -12.0604 -341.62 -1.40742 -0.748886
lowerback 7.24654 -2.14579 -1.45302
upperback -0.811437 -2.94173 0.978615
thorax -4.78084 -1.40379 2.15966
lowerneck -1.83934 9.72959 -2.39523
upperneck -0.0350133 13.031 3.59851
head -0.117135 6.53159 1.5095
rclavicle 6.85807e-015 9.14409e-015
rhumerus -40.0385 -13.3342 -42.1258
rradius 123.572
rwrist 14.7653
rhand 14.4296 8.08223
rfingers 7.12502
rthumb 39.3144 -17.347
lclavicle 6.85807e-015 9.14409e-015
lhumerus 23.9787 -0.725388 56.7871
lradius 98.6742
lwrist -64.6669
lhand 17.3273 52.1944
lfingers 7.12502
lthumb 42.0377 76.7718
rfemur -35.0482 12.9337 15.9015
rtibia 28.6623
rfoot -1.94175 -24.5969
rtoes -10.1764
lfemur -30.1254 -19.9868 -2.38152
ltibia 19.5255
lfoot -10.8019 19.4171
ltoes -16.8486
2451
root 13.7691 16.4826 -12.057 -341.53 -1.68554 -0.668864
lowerback 7.19511 -2.10574 -1.16733
upperback -0.828373 -2.8566 1.10482
thorax -4.78069 -1.36754 2.11956
lowerneck -1.81104 10.1259 -2.14254
upperneck -0.135284 13.5524 2.24331
head -0.0535777 6.78765 1.05587
rclavicle -2.0276e-014 1.98785e-016
rhumerus -40.2338 -13.278 -42.0919
rradius 123.69
rwrist 14.8875
rhand 14.7731 8.16322
rfingers 7.12502
rthumb 39.6381 -17.171
lclavicle -2.0276e-014 1.98785e-016
lhumerus 22.6513 1.09177 55.9522
lradius 97.6221
lwrist -65.1951
lhand 18.629 51.9846
lfingers 7.12502
lthumb 43.2558 76.1396
rfemur -35.1645 13.0846 15.7158
rtibia 28.6367
rfoot -1.80413 -24.5113
rtoes -10.2522
lfemur -30.0396 -20.0504 -2.45507
ltibia 19.3515
lfoot -11.0297 19.6351
ltoes -15.3366
2452
root 13.7743 16.4891 -12.0446 -341.431 -1.95506 -0.420432
lowerback 7.13968 -2.13482 -1.10032
upperback -0.875251 -2.88198 1.25774
thorax -4.79268 -1.37956 2.24233
lowerneck -1.76733 10.5772 -1.87411
upperneck -0.213037 14.1472 0.771553
head 0.0303395 7.0805 0.578696
rclavicle -2.02263e-014 -9.93923e-015
rhumerus -40.2301 -13.0841 -42.0643
rradius 123.752
rwrist 14.8446
rhand 14.5389 7.91354
rfingers 7.12502
rthumb 39.4175 -17.4856
lclavicle -2.02263e-014 -9.93923e-015
lhumerus 20.8413 2.75598 54.8794
lradius 96.8795
lwrist -65.9842
lhand 20.5169 52.7201
lfingers 7.12502
lthumb 45.0163 76.2133
rfemur -35.2716 13.1759 15.3378
rtibia 28.6529
rfoot -2.18333 -24.4841
rtoes -9.62352
lfemur -29.918 -20.1803 -2.7213
ltibia 19.1179
lfoot -11.141 19.8827
ltoes -14.5904
2453
root 13.7776 16.4968 -12.0339 -341.435 -2.18911 -0.249941
lowerback 7.1954 -2.14578 -0.989244
upperback -0.883066 -2.88049 1.39347
thorax -4.8309 -1.3794 2.32376
lowerneck -1.76662 11.0024 -1.32785
upperneck -0.260325 14.7064 -0.803576
head 0.166929 7.35507 0.0531672
rclavicle 8.70925e-015 6.80837e-015
rhumerus -40.2032 -13.0253 -41.9693
rradius 123.701
rwrist 14.7684
rhand 14.4708 7.73434
rfingers 7.12502
rthumb 39.3533 -17.6836
lclavicle 8.70925e-015 6.80837e-015
lhumerus 19.0514 4.13432 53.5991
lradius 95.8842
lwrist -66.1613
lhand 21.37 53.7365
lfingers 7.12502
lthumb 45.8092 76.91
rfemur -35.2959 13.2841 15.0809
rtibia 28.7092
rfoot -2.5048 -24.5241
rtoes -9.39164
lfemur -29.6558 -20.2407 -2.96402
ltibia 18.8049
lfoot -10.9725 20.0909
ltoes -14.6767
2454
root 13.782 16.5012 -12.027 -341.374 -2.42574 -0.232662
lowerback 7.06111 -2.12758 -0.667963
upperback -0.719158 -2.82236 1.51952
thorax -4.59578 -1.36139 2.25683
lowerneck -2.01677 11.3906 -0.664919
upperneck -0.473709 15.2217 -2.54054
head 0.330093 7.60774 -0.514784
rclavicle -1.18215e-014 -5.46658e-015
rhumerus -39.9703 -13.222 -41.9967
rradius 123.545
rwrist 14.8552
rhand 14.9367 7.83462
rfingers 7.12502
rthumb 39.792 -17.4538
lclavicle -1.18215e-014 -5.46658e-015
lhumerus 17.3931 5.26821 52.2563
lradius 94.8339
lwrist -65.5161
lhand 21.7524 54.864
lfingers 7.12502
lthumb 46.1639 77.89
rfemur -35.431 13.3902 15.0034
rtibia 28.7954
rfoot -2.31392 -24.5088
rtoes -9.43828
lfemur -29.4418 -20.234 -3.01259
ltibia 18.4468
lfoot -10.7884 20.2906
ltoes -14.5792
